<svg width="128" height="128" viewBox="0 0 128 128" fill="none" xmlns="http://www.w3.org/2000/svg">
<path d="M77.9998 101.333C67.5776 101.333 58.7498 97.7167 51.5165 90.4834C44.2832 83.25 40.6665 74.4222 40.6665 64C40.6665 53.5778 44.2832 44.75 51.5165 37.5167C58.7498 30.2834 67.5776 26.6667 77.9998 26.6667C88.4221 26.6667 97.2498 30.2834 104.483 37.5167C111.717 44.75 115.333 53.5778 115.333 64C115.333 74.4222 111.717 83.25 104.483 90.4834C97.2498 97.7167 88.4221 101.333 77.9998 101.333ZM42.2998 99.9334C33.5109 98.8445 26.3748 94.8195 20.8915 87.8584C15.4082 80.8972 12.6665 72.9445 12.6665 64C12.6665 55.0556 15.4082 47.1028 20.8915 40.1417C26.3748 33.1806 33.5109 29.1556 42.2998 28.0667V34.8334C35.4554 36.0778 29.9721 39.4806 25.8498 45.0417C21.7276 50.6028 19.6665 56.9222 19.6665 64C19.6665 71.0778 21.7276 77.3972 25.8498 82.9584C29.9721 88.5195 35.4554 91.9222 42.2998 93.1667V99.9334ZM77.9998 94.3334C86.3221 94.3334 93.4582 91.3584 99.4082 85.4084C105.358 79.4584 108.333 72.3222 108.333 64C108.333 55.6778 105.358 48.5417 99.4082 42.5917C93.4582 36.6417 86.3221 33.6667 77.9998 33.6667C69.6776 33.6667 62.5415 36.6417 56.5915 42.5917C50.6415 48.5417 47.6665 55.6778 47.6665 64C47.6665 72.3222 50.6415 79.4584 56.5915 85.4084C62.5415 91.3584 69.6776 94.3334 77.9998 94.3334Z" fill="#00E676"/>
</svg>
