<svg width="76" height="19" viewBox="0 0 76 19" fill="none" xmlns="http://www.w3.org/2000/svg">
<path d="M10 14.8333C8.51113 14.8333 7.25002 14.3167 6.21669 13.2833C5.18335 12.25 4.66669 10.9889 4.66669 9.5C4.66669 8.01111 5.18335 6.75 6.21669 5.71667C7.25002 4.68333 8.51113 4.16667 10 4.16667C11.4889 4.16667 12.75 4.68333 13.7834 5.71667C14.8167 6.75 15.3334 8.01111 15.3334 9.5C15.3334 10.9889 14.8167 12.25 13.7834 13.2833C12.75 14.3167 11.4889 14.8333 10 14.8333ZM4.90002 14.6333C3.64446 14.4778 2.62502 13.9028 1.84169 12.9083C1.05835 11.9139 0.666687 10.7778 0.666687 9.5C0.666687 8.22222 1.05835 7.08611 1.84169 6.09167C2.62502 5.09722 3.64446 4.52222 4.90002 4.36667V5.33333C3.92224 5.51111 3.13891 5.99722 2.55002 6.79167C1.96113 7.58611 1.66669 8.48889 1.66669 9.5C1.66669 10.5111 1.96113 11.4139 2.55002 12.2083C3.13891 13.0028 3.92224 13.4889 4.90002 13.6667V14.6333ZM10 13.8333C11.1889 13.8333 12.2084 13.4083 13.0584 12.5583C13.9084 11.7083 14.3334 10.6889 14.3334 9.5C14.3334 8.31111 13.9084 7.29167 13.0584 6.44167C12.2084 5.59167 11.1889 5.16667 10 5.16667C8.81113 5.16667 7.79169 5.59167 6.94169 6.44167C6.09169 7.29167 5.66669 8.31111 5.66669 9.5C5.66669 10.6889 6.09169 11.7083 6.94169 12.5583C7.79169 13.4083 8.81113 13.8333 10 13.8333Z" fill="white"/>
<path d="M25.696 15L25.536 14.024C25.2693 14.3547 24.9653 14.616 24.624 14.808C24.2933 15 23.8453 15.096 23.28 15.096C22.7467 15.096 22.2773 15.0053 21.872 14.824C21.4773 14.632 21.168 14.3707 20.944 14.04C20.72 13.6987 20.608 13.2987 20.608 12.84C20.608 12.168 20.848 11.6133 21.328 11.176C21.8187 10.728 22.5547 10.4453 23.536 10.328L25.536 10.104V9.544C25.536 9.32 25.4347 9.112 25.232 8.92C25.0293 8.728 24.7093 8.632 24.272 8.632C23.888 8.632 23.552 8.728 23.264 8.92C22.9867 9.10133 22.8 9.37867 22.704 9.752L20.944 9.112C21.1573 8.39733 21.5627 7.848 22.16 7.464C22.7573 7.08 23.4933 6.888 24.368 6.888C25.4347 6.888 26.2347 7.15467 26.768 7.688C27.312 8.21067 27.584 8.904 27.584 9.768V15H25.696ZM25.536 11.528L23.808 11.752C23.456 11.7947 23.1893 11.9013 23.008 12.072C22.8267 12.232 22.736 12.4293 22.736 12.664C22.736 12.888 22.8267 13.08 23.008 13.24C23.1893 13.3893 23.4453 13.464 23.776 13.464C24.1493 13.464 24.464 13.3947 24.72 13.256C24.9867 13.1173 25.1893 12.9147 25.328 12.648C25.4667 12.3813 25.536 12.0507 25.536 11.656V11.528ZM29.4608 7H31.3168L31.4608 8.024C31.6848 7.74667 31.9354 7.52267 32.2128 7.352C32.5008 7.17067 32.8154 7.048 33.1568 6.984C33.4981 6.90933 33.8554 6.91467 34.2288 7V8.92C33.9408 8.824 33.6368 8.79733 33.3168 8.84C33.0074 8.88267 32.7141 8.99467 32.4368 9.176C32.1701 9.35733 31.9461 9.61867 31.7648 9.96C31.5941 10.2907 31.5088 10.712 31.5088 11.224V15H29.4608V7ZM41.1266 7H42.9826V13.816C42.9826 14.7227 42.7586 15.5013 42.3106 16.152C41.8626 16.8133 41.212 17.32 40.3586 17.672C39.516 18.024 38.5026 18.2 37.3186 18.2L36.9986 16.472C38.2893 16.4507 39.2653 16.2213 39.9266 15.784C40.5986 15.3467 40.9346 14.7173 40.9346 13.896V13.864L41.2066 13.768C40.9506 14.1413 40.5986 14.4613 40.1506 14.728C39.7026 14.984 39.1693 15.112 38.5506 15.112C37.8466 15.112 37.228 14.9413 36.6946 14.6C36.1613 14.2587 35.74 13.784 35.4306 13.176C35.132 12.5573 34.9826 11.832 34.9826 11C34.9826 10.168 35.132 9.44267 35.4306 8.824C35.74 8.20533 36.1613 7.73067 36.6946 7.4C37.228 7.05867 37.8466 6.888 38.5506 6.888C38.9133 6.888 39.2493 6.94133 39.5586 7.048C39.8786 7.144 40.156 7.27733 40.3906 7.448C40.636 7.608 40.8386 7.78933 40.9986 7.992L41.1266 7ZM37.1906 11C37.1906 11.672 37.3613 12.216 37.7026 12.632C38.044 13.0373 38.5026 13.24 39.0786 13.24C39.4093 13.24 39.7133 13.1547 39.9906 12.984C40.268 12.8027 40.492 12.5413 40.6626 12.2C40.844 11.8587 40.9346 11.4587 40.9346 11C40.9346 10.52 40.844 10.1147 40.6626 9.784C40.492 9.45333 40.2626 9.20267 39.9746 9.032C39.6973 8.85067 39.3986 8.76 39.0786 8.76C38.5026 8.76 38.044 8.968 37.7026 9.384C37.3613 9.78933 37.1906 10.328 37.1906 11Z" fill="white"/>
<path d="M48.4651 15.112C47.6865 15.112 47.0038 14.9413 46.4171 14.6C45.8305 14.2587 45.3718 13.784 45.0411 13.176C44.7105 12.5573 44.5451 11.8427 44.5451 11.032C44.5451 10.2107 44.7105 9.49067 45.0411 8.872C45.3718 8.25333 45.8358 7.768 46.4331 7.416C47.0305 7.064 47.7185 6.888 48.4971 6.888C49.3398 6.888 50.0865 7.096 50.7371 7.512C51.3985 7.928 51.8625 8.488 52.1291 9.192L50.2251 9.736C50.0971 9.42667 49.8838 9.18133 49.5851 9C49.2971 8.81867 48.9665 8.728 48.5931 8.728C48.2198 8.728 47.8891 8.824 47.6011 9.016C47.3238 9.208 47.1051 9.47467 46.9451 9.816C46.7958 10.1573 46.7211 10.5573 46.7211 11.016C46.7211 11.7093 46.8918 12.2587 47.2331 12.664C47.5745 13.0693 48.0331 13.272 48.6091 13.272C48.9718 13.272 49.3025 13.1867 49.6011 13.016C49.8998 12.8347 50.1238 12.5893 50.2731 12.28L52.1611 12.824C51.8731 13.5173 51.3931 14.072 50.7211 14.488C50.0598 14.904 49.3078 15.112 48.4651 15.112ZM57.3584 15.112C56.5797 15.112 55.8864 14.9467 55.2784 14.616C54.6704 14.2747 54.1904 13.8 53.8384 13.192C53.497 12.5733 53.3264 11.848 53.3264 11.016C53.3264 10.1733 53.5024 9.44267 53.8544 8.824C54.217 8.20533 54.7077 7.73067 55.3264 7.4C55.945 7.05867 56.6384 6.888 57.4064 6.888C58.1744 6.888 58.8677 7.05867 59.4864 7.4C60.105 7.73067 60.5957 8.20533 60.9584 8.824C61.321 9.432 61.5024 10.152 61.5024 10.984C61.5024 11.8267 61.3157 12.5573 60.9424 13.176C60.5797 13.7947 60.0837 14.2747 59.4544 14.616C58.8357 14.9467 58.137 15.112 57.3584 15.112ZM57.3424 13.272C57.673 13.272 57.9877 13.192 58.2864 13.032C58.585 12.8613 58.8304 12.6107 59.0224 12.28C59.2144 11.9387 59.3104 11.5067 59.3104 10.984C59.3104 10.4827 59.2197 10.0667 59.0384 9.736C58.857 9.39467 58.617 9.144 58.3184 8.984C58.0304 8.81333 57.7157 8.728 57.3744 8.728C57.0437 8.728 56.7344 8.81333 56.4464 8.984C56.169 9.144 55.945 9.39467 55.7744 9.736C55.6144 10.0667 55.5344 10.4933 55.5344 11.016C55.5344 11.5173 55.6144 11.9387 55.7744 12.28C55.9344 12.6107 56.153 12.8613 56.4304 13.032C56.7077 13.192 57.0117 13.272 57.3424 13.272ZM63.3421 7H65.3901V15H63.3421V7ZM64.3821 5.976C63.9981 5.976 63.6835 5.85867 63.4381 5.624C63.1928 5.37867 63.0701 5.08 63.0701 4.728C63.0701 4.376 63.1928 4.08267 63.4381 3.848C63.6835 3.60267 63.9981 3.48 64.3821 3.48C64.7448 3.48 65.0488 3.60267 65.2941 3.848C65.5501 4.08267 65.6781 4.376 65.6781 4.728C65.6781 5.08 65.5501 5.37867 65.2941 5.624C65.0488 5.85867 64.7448 5.976 64.3821 5.976ZM67.6326 7H69.4886L69.6326 7.816C69.8886 7.528 70.198 7.304 70.5606 7.144C70.934 6.97333 71.334 6.888 71.7606 6.888C72.39 6.888 72.9233 7.02133 73.3606 7.288C73.8086 7.55467 74.15 7.944 74.3846 8.456C74.63 8.95733 74.7526 9.58133 74.7526 10.328V15H72.6886V10.6C72.6886 9.98133 72.566 9.51733 72.3206 9.208C72.0753 8.89867 71.7073 8.744 71.2166 8.744C70.7153 8.744 70.3313 8.904 70.0646 9.224C69.8086 9.53333 69.6806 9.99733 69.6806 10.616V15H67.6326V7Z" fill="#00E676"/>
</svg>
